<?xml version="1.0" encoding="UTF-8"?>
<svg id="Layer_2" data-name="Layer 2" xmlns="http://www.w3.org/2000/svg" viewBox="0 0 1692.63 545.29">
  <defs>
    <style>
      .cls-1 {
        fill: #d02332;
      }

      .cls-1, .cls-2, .cls-3, .cls-4 {
        stroke-width: 0px;
      }

      .cls-2 {
        fill: #d8a5a9;
      }

      .cls-3 {
        fill: #d02535;
      }

      .cls-4 {
        fill: #fff;
      }
    </style>
  </defs>
  <g id="Layer_1-2" data-name="Layer 1">
    <g>
      <path class="cls-3" d="M1692.63,519.81c-1.55-.09-3.1-.25-4.66-.25-204.97-.01-409.93-.01-614.9-.01-1.44,0-2.87,0-4.64,0-.33-4.07-.13-7.91-.16-12.03h611.95c.7-2.66.95-465.46.29-471.02h-543.39v-11.87c.94-.08,1.78-.17,2.64-.22.45-.03.89,0,1.34,0,182.84,0,365.67,0,548.51,0,1.01,0,2.01.02,3.02.03v495.38Z"/>
      <path class="cls-4" d="M804.07,545.29c-.27-.18-.51-.46-.81-.52-13.16-2.95-20.91-11.46-24.21-24.13-2.71-10.43-1.83-20.69,3.65-30.13,6.7-11.55,17.05-16.55,30.27-15.85,16.28.86,28.06,13.22,29.94,30.3.77,6.96.13,13.83-2.64,20.37-4.23,9.98-11.39,16.64-22.04,19.3-.5.12-.95.44-1.42.66h-12.74ZM800.17,508.11c.24,5.11.57,8.87,2.47,12.3,1.74,3.15,4.26,5.28,7.95,5.26,3.68-.02,6.37-2.09,7.84-5.37,3.08-6.88,3.05-13.86-.21-20.67-1.53-3.2-4.15-5.27-7.91-5.25-3.93.02-6.59,2.25-7.95,5.65-1.18,2.95-1.69,6.17-2.19,8.07Z"/>
      <path class="cls-2" d="M0,24.44c.46,0,.93.02,1.39.03-.07,1.67-.19,3.34-.19,5.01,0,161.42,0,322.84,0,484.26,0,.89-.04,1.79.01,2.68.05.85.18,1.7.31,2.8,1.53,0,2.85,0,4.17,0,205.29,0,410.59,0,615.88,0,1.34,0,2.68-.11,4.01-.17-.43.27-.83.72-1.29.77-.99.12-2.01.05-3.01.05-205.42,0-410.84,0-616.26,0-1.67,0-3.35-.03-5.02-.05V24.44Z"/>
      <path class="cls-4" d="M1077.18,145.15v159.88h-44.66c-.08-.06-.17-.12-.25-.2-.07-.08-.16-.18-.16-.27,0-33.24,0-66.47,0-99.71-.26-.05-.52-.09-.79-.14-9.87,33.4-19.74,66.8-29.65,100.32h-35.43c-9.74-33.21-19.55-66.63-29.35-100.05-.21.03-.41.06-.62.09v99.96h-44.44c-.66-2.41-.9-154.13-.24-159.84h60.62c10.57,34.24,21.21,68.66,31.84,103.09.24.01.47.03.71.04,10.61-34.35,21.22-68.71,31.86-103.17h60.57Z"/>
      <path class="cls-1" d="M625.59,519.04c-1.34.06-2.68.17-4.01.17-205.29,0-410.59,0-615.88,0-1.32,0-2.64,0-4.17,0-.13-1.1-.26-1.94-.31-2.8-.05-.89-.01-1.79-.01-2.68,0-161.42,0-322.84,0-484.26,0-1.67.12-3.34.19-5.01,1.23-.02,2.46-.05,3.69-.05,182.39,0,364.78,0,547.17,0h4.42v11.98H13.06v471.03h612.52v11.61Z"/>
      <path class="cls-4" d="M654.19,305.1h-50.84c-8.76-19.23-17.53-38.49-26.35-57.84h-24.47v57.74h-45.93v-159.73c.7-.09,1.44-.27,2.17-.27,31.85,0,63.7.02,95.55.05,5.83,0,11.6.56,17.25,2.06,8.66,2.31,15.57,7.06,20.51,14.61,4.93,7.53,7.67,15.84,8.94,24.66,1.47,10.22.69,20.29-2.66,30.08-4.08,11.9-11.64,20.45-23.95,24.29-.62.19-1.22.46-2.25.85,10.65,21.13,21.21,42.08,32.02,63.51ZM552.61,210.67c.69.07,1.12.15,1.55.15,11.95,0,23.9.03,35.85-.05,1.99-.01,4.02-.3,5.96-.76,5.17-1.23,8.51-4.49,9.34-9.75.42-2.71.42-5.61-.08-8.3-1.16-6.29-5.69-10.08-12.07-10.62-1-.08-2.01-.08-3.01-.08-11.5,0-23,0-34.51,0-.97,0-1.94.11-3.02.17v29.24Z"/>
      <path class="cls-4" d="M166.06,258.67c15.01-.84,29.47-1.65,44.14-2.47.84,6.36,3.47,11.49,8.33,15.35,3.73,2.97,9.55,5.27,13.9,5.48v-35.71c-2.51-.34-5.03-.63-7.52-1.04-9.24-1.51-18.48-3.06-27.72-4.62-1.09-.19-2.16-.55-3.23-.87-13.29-3.96-20.55-13.17-22.97-26.51-1.39-7.69-1.12-15.36.98-22.89,4.08-14.56,13.6-24.29,27.25-30.26,8.93-3.9,18.39-5.35,28.02-5.95,1.43-.09,2.88-.01,4.81-.01.1-4.47.07-8.66.07-12.85,0-4.24,0-8.48,0-12.67,2.42-.77,12.39-1,16.55-.37v25.52c3.6.57,7.02.93,10.35,1.69,4.78,1.09,9.6,2.14,14.21,3.77,17.71,6.25,28.62,18.77,33.22,36.88.52,2.03.9,4.09,1.44,6.57-14.39.99-28.45,1.97-42.45,2.94-3.08-12.33-6.77-16.27-16.54-17.77v28.37c4.5.52,9.01,1.02,13.52,1.55,7.87.93,15.79,1.72,23.38,4.13,12,3.8,21.23,11.02,24.41,23.58,5.15,20.37.17,42.33-19.76,56.68-8.7,6.26-18.55,9.68-29.02,11.44-4.05.68-8.14,1.12-12.44,1.71v30.03c-2.61.72-12.02.84-16.31.24v-30.28c-3.39-.35-6.57-.63-9.74-1.01-11.09-1.3-21.69-4.16-31.26-10.16-13.29-8.33-21.44-20.24-24.68-35.55-.32-1.5-.57-3.02-.92-4.95ZM248.87,277.84c4.45-.33,8.17-1.66,11.55-4,4.06-2.8,6.7-6.56,7.54-11.42.82-4.72.3-9.26-3.59-12.59-4.38-3.75-9.8-4.89-15.5-5.74v33.74ZM232.11,209.02v-27.06c-4.29.44-8.14,1.43-11.61,3.57-4.35,2.69-6.37,6.73-6.44,11.77-.06,4.32,1.4,6.74,5.51,8.18,3.96,1.39,8.08,2.3,12.54,3.54Z"/>
      <path class="cls-4" d="M1435.92,243.45v25.23c3.72.43,7.48.14,11.21.19,3.8.05,7.6.01,11.4.01h68.21v36.11h-136.49v-159.51c2.27-.62,129.34-.85,134.63-.2v35.74h-88.83v26.14h82.11v36.28h-82.24Z"/>
      <path class="cls-4" d="M691.67,145.15h45.69c0,1.39,0,2.7,0,4.02,0,28.15-.05,56.3.04,84.46.02,5.46.18,10.97.96,16.36,2.19,15.22,12.99,25.23,30.5,24.87,2.55-.05,5.13-.46,7.61-1.07,8.36-2.05,14.32-6.98,17.62-15.03,1.93-4.7,2.92-9.61,3.24-14.64.25-4.01.32-8.04.33-12.06.03-27.71.01-55.41.01-83.12,0-1.21,0-2.41,0-3.78h45.64c.07.93.2,1.79.2,2.65,0,29.27.07,58.54-.05,87.81-.05,11.05-.53,22.1-3.06,32.95-3.85,16.55-13.74,27.97-29.2,34.74-8.9,3.89-18.3,5.75-27.91,6.59-14.08,1.23-28.14.91-42.12-1.27-9.67-1.51-18.8-4.43-27.15-9.88-10.64-6.94-16.77-16.74-19.9-28.73-1.82-6.95-2.58-14.06-2.59-21.22-.05-33.63-.03-67.25-.02-100.88,0-.87.09-1.74.15-2.75Z"/>
      <path class="cls-4" d="M1170.89,248.65v56.31h-45.48v-159.76c.42-.07.84-.19,1.26-.19,30.62.03,61.24-.04,91.86.19,5.99.05,12.05.85,17.93,2.03,10.49,2.1,18.14,8.22,22.97,17.82,2.94,5.84,4.71,12.03,5.64,18.48,1.56,10.85,1.26,21.6-1.65,32.21-1.67,6.09-4.39,11.69-8.31,16.67-6.55,8.33-15.4,12.64-25.59,14.61-7.62,1.47-15.32,1.57-23.03,1.62-10.5.06-21.01.02-31.51.02-1.21,0-2.42,0-4.08,0ZM1171.07,212.69c1.15,0,2.13,0,3.11,0,8.83,0,17.65.01,26.48-.01,1.78,0,3.57-.13,5.35-.26,10.04-.75,14.37-6.47,13.92-16.32-.39-8.55-4.55-15.1-15.1-14.89-10.39.2-20.78.04-31.17.05-.85,0-1.7.14-2.58.22v31.21Z"/>
      <path class="cls-4" d="M384.41,180.87h-45.47v-35.33c2.33-.68,132.27-.9,137-.22v35.64h-45.2v124.02h-46.33v-124.11Z"/>
      <path class="cls-4" d="M1298.6,145.1h45.65v159.9h-45.65v-159.9Z"/>
      <path class="cls-4" d="M981.65,475.55v40.61h7.95v16.11h-7.88v11.56h-22.13v-11.36h-32.76c-.73-3.07-1.47-5.97-2.09-8.89-.53-2.49-1.68-5.18-1.16-7.46.5-2.16,2.79-3.92,4.34-5.82,8.81-10.83,17.66-21.63,26.4-32.51,1.32-1.64,2.64-2.34,4.78-2.29,6.36.15,12.74.06,19.1.06.99,0,1.98,0,3.45,0ZM945.15,516.46c3.01,0,5.21.02,7.41,0,2.29-.02,4.57-.09,7-.14,0-3.21.06-5.99-.02-8.77-.07-2.68.33-5.4-.37-8.56-4.71,5.87-9.09,11.33-14.02,17.47Z"/>
      <path class="cls-4" d="M738.83,526.17h24.6v17.64h-57.03v-16.49c8.32-5.97,16.75-12.01,25.18-18.07,1.72-1.24,3.56-2.37,5.06-3.84,1.32-1.29,2.57-2.85,3.28-4.54,1.27-3-.52-5.91-3.73-6.53-2.89-.56-5.6.04-7.91,1.85-2.45,1.92-4.76,4.01-7.33,6.19-4.83-4.11-9.73-8.28-14.76-12.56,6.44-8.5,14.39-13.91,24.97-14.84,5.82-.51,11.59-.29,17.15,1.89,10.87,4.28,16.22,13.62,14.22,25.01-.7,3.96-2.4,7.5-5.34,10.21-2.69,2.48-5.64,4.72-8.64,6.84-3.24,2.29-6.66,4.31-10,6.44.09.27.18.53.28.8Z"/>
      <path class="cls-4" d="M870.93,502.42c-5.02-4.28-9.84-8.39-14.81-12.62,6.43-8.51,14.38-13.91,24.97-14.83,5.94-.52,11.84-.29,17.47,2.02,10.89,4.47,16.55,14.24,13.49,26.56-1,4.03-3.25,7.37-6.37,10.02-2.37,2.02-4.95,3.82-7.53,5.57-3.13,2.13-6.35,4.11-9.96,6.42,3.08,1,5.81.41,8.47.52,2.68.11,5.36.02,8.04.02h8.55v17.69h-56.81c-.06-.82-.18-1.77-.18-2.73-.02-3.57.14-7.16-.06-10.72-.14-2.31.77-3.61,2.6-4.89,8.42-5.89,16.74-11.91,25.06-17.94,1.53-1.11,3.05-2.31,4.27-3.73.9-1.05,1.61-2.46,1.88-3.81.61-3.01-1.13-5.22-4.18-5.72-3.19-.52-5.99.46-8.43,2.44-2.15,1.75-4.17,3.67-6.48,5.71Z"/>
      <path class="cls-4" d="M834.2,423.08h-9.83c-2.56-8.66-5.1-17.28-7.65-25.9-.18,0-.35.02-.53.03v25.79h-12.48v-44.3h16.76c2.84,9.13,5.73,18.44,8.63,27.75.2.03.39.07.59.1,2.9-9.3,5.8-18.6,8.71-27.95h16.18c.71,2.35.89,40.4.19,44.44h-12.08c-.24-8.47.02-16.99-.15-25.49-.22-.04-.45-.08-.67-.12-2.56,8.56-5.12,17.12-7.67,25.66Z"/>
      <path class="cls-4" d="M917.68,378.65h16.78c2.86,9.2,5.75,18.48,8.63,27.77.2.02.41.04.61.05,2.9-9.3,5.79-18.6,8.69-27.89h16.51v44.36h-12.26v-25.38c-.27-.03-.53-.07-.8-.1-2.53,8.48-5.05,16.96-7.62,25.55h-9.88c-2.55-8.64-5.1-17.26-7.64-25.88l-.59.05v25.83h-12.44v-44.35Z"/>
      <path class="cls-4" d="M517.12,379.09h13.03v44.01h-12.29v-23.61l-.64-.17c-3.47,5.25-6.93,10.5-10.65,16.12-3.62-5.53-7.07-10.79-10.51-16.05-.9,7.94-.59,15.76-.81,23.74h-12.03v-44.16c4.04,0,8.03-.09,12,.08.75.03,1.65.99,2.14,1.75,2.53,3.94,4.94,7.96,7.41,11.94.57.92,1.19,1.8,2.01,3.05,3.59-5.8,6.99-11.28,10.35-16.7Z"/>
      <path class="cls-4" d="M1081.11,423v-44.33c.84-.07,1.59-.18,2.35-.18,8.83-.01,17.65-.04,26.48.02,1.89.01,3.86.06,5.63.63,1.62.52,3.36,1.46,4.44,2.72,3.89,4.56,2.57,12.91-2.35,16.3-.34.23-.69.45-1.04.68.16.2.21.34.3.37,3.22,1.13,5.77,2.95,6.61,6.47.94,3.92.79,7.77-1.16,11.38-1.65,3.06-4.39,4.71-7.68,5.43-1.74.38-3.54.65-5.31.66-8.94.07-17.87.03-26.81.02-.43,0-.85-.1-1.45-.17ZM1093.76,413.05c4.03,0,7.69,0,11.34,0,1,0,2.01.02,2.99-.14,2.38-.41,3.33-1.71,3.22-4.25-.1-2.33-1.01-3.3-3.6-3.39-3.11-.11-6.22-.04-9.34-.04-1.51,0-3.03,0-4.61,0v7.82ZM1093.83,395.69c4.39,0,8.38.08,12.37-.03,2.71-.07,3.77-1.22,3.74-3.63-.02-2.31-1.14-3.39-3.92-3.47-3.11-.09-6.23-.04-9.34-.02-.95,0-1.9.12-2.85.19v6.95Z"/>
      <path class="cls-4" d="M217.65,379.13h12.99v44.01h-11.94v-24.3c-2.22,1.57-2.96,3.68-4.18,5.38-1.24,1.72-2.32,3.55-3.5,5.31-1.21,1.83-2.45,3.64-3.91,5.81-3.72-5.62-7.17-10.84-10.62-16.07-.18.07-.36.14-.54.2v23.71c-4.05.23-7.9.05-11.71.11-.74-2.63-1.02-35.2-.4-44.09h13.06c3.31,5.32,6.7,10.77,10.36,16.65,3.62-5.84,6.96-11.21,10.39-16.74Z"/>
      <path class="cls-4" d="M700.42,25.66c-6.66,4.85-13.33,9.71-20.2,14.71,2.61,8.12,5.19,16.13,8.03,24.94-7.49-5.41-14.31-10.34-21.24-15.35-6.84,4.95-13.56,9.82-20.29,14.68-.19-.14-.38-.27-.57-.41,2.54-7.91,5.08-15.82,7.66-23.86-6.85-5-13.56-9.9-20.27-14.79.06-.18.12-.36.17-.55h25.1c2.7-8.24,5.33-16.27,8.2-25.03,2.85,8.68,5.48,16.7,8.19,24.95h25.06c.05.23.1.47.16.7Z"/>
      <path class="cls-4" d="M756.69,49.96c-6.92,5.01-13.68,9.91-20.44,14.8-.17-.1-.33-.2-.5-.3,2.56-7.98,5.13-15.96,7.73-24.07-6.86-5.01-13.56-9.9-20.26-14.79.06-.19.13-.38.19-.57h25.06c2.7-8.24,5.33-16.25,8.21-25.02,2.87,8.75,5.48,16.73,8.16,24.91h25.09c.09.21.19.42.28.63-6.69,4.87-13.37,9.75-20.33,14.82,2.56,7.99,5.12,15.98,7.68,23.96-.19.11-.38.22-.57.33-6.67-4.83-13.35-9.66-20.32-14.7Z"/>
      <path class="cls-4" d="M866.72,64.69c-6.68-4.84-13.36-9.67-20.35-14.74-6.78,4.91-13.61,9.85-20.44,14.8-.17-.11-.34-.22-.5-.33,2.55-7.91,5.1-15.82,7.75-24.05-6.75-4.92-13.48-9.82-20.16-14.69.1-.26.12-.38.18-.46.06-.07.16-.15.25-.15,8.15,0,16.29,0,24.69,0,2.66-8.1,5.28-16.08,7.9-24.05.22,0,.44.01.66.02,2.58,7.88,5.16,15.75,7.83,23.89h24.98c.1.23.19.46.29.69-6.68,4.87-13.36,9.74-20.24,14.75,2.57,7.99,5.12,15.9,7.67,23.82-.17.17-.34.34-.51.5Z"/>
      <path class="cls-4" d="M1005.17,63.92c1.71-5.53,3.41-11.05,5.12-16.58.69-2.22,1.41-4.44,2.21-6.95-6.76-4.93-13.48-9.84-20.9-15.26,9.02-.32,17.3.02,25.93-.22,2.65-8.05,5.32-16.16,8.19-24.9,2.84,8.65,5.46,16.68,8.17,24.92h25.08c.09.22.18.43.27.65-6.69,4.87-13.38,9.74-20.32,14.78,2.61,8.08,5.19,16.09,7.77,24.1-.13.13-.26.26-.39.39-6.8-4.92-13.59-9.85-20.51-14.86-6.78,4.83-13.48,9.6-20.18,14.38-.13-.17-.27-.32-.42-.46Z"/>
      <path class="cls-4" d="M922.85,40.37c-6.9-5.02-13.61-9.91-20.32-14.8.06-.18.13-.36.19-.54h25.11c2.68-8.19,5.3-16.2,8.2-25.04,2.87,8.75,5.5,16.75,8.2,24.97h25.03c.08.21.17.42.25.63-6.68,4.87-13.37,9.74-20.26,14.77,2.6,8.09,5.17,16.09,7.74,24.1l-.47.31c-6.76-4.88-13.51-9.77-20.48-14.81-6.79,4.91-13.53,9.79-20.27,14.67-.2-.11-.41-.22-.61-.33,2.53-7.86,5.06-15.72,7.7-23.93Z"/>
      <path class="cls-4" d="M1441.72,378.97c3.37,0,6.61.08,9.83-.03,1.51-.05,2.18.88,2.93,1.85,4.66,5.99,9.32,11.99,14,17.98.66.85,1.37,1.65,2.66,2.32v-21.95h12.11v44.18c-3.26,0-6.36-.05-9.46.02-1.55.03-2.07-1.14-2.8-2.07-5.11-6.5-10.19-13.02-15.28-19.52-.41-.53-.85-1.03-1.52-1.84-.77,2.72-.29,5.23-.37,7.68-.09,2.57-.02,5.14-.02,7.71v7.83h-11.87c-.63-2.36-.84-38.47-.19-44.14Z"/>
      <path class="cls-4" d="M605.44,423.14h-12.01c-.65-2.4-.9-36.73-.3-43.91.79-.09,1.63-.25,2.47-.26,6.48-.02,12.96-.14,19.43.05,2.64.07,5.35.52,7.86,1.32,5.39,1.69,8.59,5.56,9.32,11.15.77,5.91-.71,11.09-5.89,14.69-.82.57-1.68,1.06-2.83,1.79,3.37,4.99,6.69,9.9,10.35,15.33-4.8,0-8.99.09-13.17-.08-.77-.03-1.7-.94-2.21-1.68-2.61-3.75-5.1-7.59-7.7-11.49h-5.31v13.08ZM605.53,399.95c3.41,0,6.52.18,9.6-.05,3.08-.23,4.74-2.2,4.76-4.99.02-2.84-1.62-4.85-4.66-5.08-3.17-.24-6.38-.05-9.69-.05v10.18Z"/>
      <path class="cls-4" d="M881.33,396.01h22.43v9.85h-22.49v7.2h24.78v9.99h-37.52v-44.38h37.04v9.77h-24.25v7.57Z"/>
      <path class="cls-4" d="M1017.76,395.88v10.05c-7.4.11-14.82,0-22.47.07v7.04h24.78v10.02h-37.51v-44.38h37.02v9.75h-24.23v7.46h22.41Z"/>
      <path class="cls-4" d="M1212.31,388.53h-24.56v7.22h22.41v10.19h-22.45v7.1h24.79v9.95h-37.14c-.7-2.24-.88-40.27-.17-44.37h37.12c0,1.64,0,3.17,0,4.69s0,3.1,0,5.22Z"/>
      <path class="cls-4" d="M1332.92,411.59v-5.08h-8.28v-9.03h19.72c.09.3.31.7.31,1.1.03,5.69,0,11.38.05,17.08.01,1.24-.38,2.09-1.41,2.79-9.4,6.41-19.41,7.79-29.79,2.94-9.06-4.23-13.45-13.78-11.83-24.39,1.43-9.36,9.44-17.24,19.06-18.61,8.2-1.16,15.73.3,22.5,6.04-2.38,2.92-4.67,5.73-7.09,8.7-.82-.51-1.5-1.06-2.27-1.39-2.14-.9-4.26-2.14-6.5-2.47-7.76-1.18-13.97,4.94-13.32,12.83.79,9.58,10.14,14.36,18.86,9.48Z"/>
      <path class="cls-4" d="M580.27,412.56v10.51h-35.36c-.68-2.47-.96-33.61-.37-43.58,2.35-.65,31.37-.78,35.4-.14v9.96h-23.12v6.59h20.91v9.83h-20.83v6.83h23.37Z"/>
      <path class="cls-4" d="M354.3,379.08h35.19v10.23h-23.05v6.59h20.92v9.85h-20.85v6.85h23.06v10.49h-35.27v-44.01Z"/>
      <path class="cls-4" d="M344.35,423.29c-5.05,0-9.47.08-13.88-.08-.75-.03-1.64-.99-2.17-1.73-2.7-3.83-5.3-7.73-7.94-11.59-.62-.91-1.29-1.78-2.06-2.84-1.06,1.13-1.92,2.14-2.88,3.05-1.13,1.07-1.58,2.29-1.53,3.87.1,2.99.03,5.98.03,9.15-4.13,0-7.98,0-11.84,0-.71-2.53-.99-34.52-.38-43.9h12.22v16.41c.29.15.58.3.87.45.49-.7.92-1.45,1.47-2.1,3.74-4.44,7.54-8.82,11.23-13.3,1.01-1.22,2.07-1.79,3.68-1.74,3.9.11,7.8.03,12.47.03-2.15,2.48-3.9,4.53-5.68,6.56-1.76,2.02-3.55,4.01-5.32,6.02-1.83,2.08-3.66,4.18-5.61,6.41,5.71,8.35,11.34,16.58,17.32,25.33Z"/>
      <path class="cls-4" d="M1042.83,378.59h14.59c5.06,14.62,10.15,29.31,15.35,44.36h-13.79c-.65-2.24-1.33-4.58-2.02-6.96h-13.4c-.69,2.31-1.38,4.62-2.11,7.05h-13.87c5.14-14.98,10.19-29.69,15.26-44.44ZM1046.18,405.77h8.09c-.69-2.49-1.27-4.73-1.94-6.95-.67-2.21-.91-4.58-2.39-7-1.31,4.86-2.49,9.24-3.76,13.95Z"/>
      <path class="cls-4" d="M472.63,423.23h-13.23c-1.05-2.49-2.11-5.03-3.25-7.72h-17c-1.03,2.45-2.13,5.09-3.23,7.71h-12.23c.14-2.44,14.49-37.36,18.27-44.5h11.84c6.18,14.6,12.41,29.34,18.82,44.51ZM447.67,393.36c-1.75,4.41-3.24,8.16-4.84,12.19h9.66c-1.62-4.1-3.1-7.84-4.82-12.19Z"/>
      <path class="cls-4" d="M260.19,378.65h11.99c6.18,14.61,12.43,29.35,18.81,44.43h-13.22c-.97-2.28-2.04-4.82-3.19-7.55h-16.98c-.97,2.31-2.04,4.84-3.19,7.58h-12.93c6.28-14.91,12.5-29.67,18.73-44.46ZM270.83,405.65c-1.44-4.07-2.89-7.88-4.81-12.13-1.02,2.56-1.78,4.4-2.5,6.27-.72,1.89-1.4,3.79-2.16,5.86h9.47Z"/>
      <path class="cls-4" d="M739.26,378.66h12.01c6.19,14.63,12.46,29.45,18.84,44.54h-13.25c-1.09-2.6-2.16-5.15-3.25-7.76h-16.94c-1.07,2.58-2.13,5.13-3.22,7.77h-12.93c6.32-15.02,12.53-29.76,18.75-44.54ZM745.54,394.2l-.66-.05c-1.51,3.76-3.01,7.52-4.59,11.45h9.67c-1.55-3.99-2.98-7.69-4.42-11.4Z"/>
      <path class="cls-4" d="M1295.14,423.16h-13.25c-1.03-2.49-2.09-5.03-3.19-7.69h-16.98c-1.02,2.46-2.09,5-3.2,7.68h-12.85c6.1-15,12.45-29.65,18.65-44.46h12.03c6.22,14.71,12.45,29.44,18.8,44.47ZM1270.54,394.16c-2.03,3.75-3.8,7.43-5.03,11.34h9.5c-1.58-4.01-3.03-7.68-4.47-11.34Z"/>
      <path class="cls-4" d="M1403.94,423.22h-13.23c-1.09-2.58-2.2-5.21-3.31-7.83h-16.88c-1.08,2.57-2.18,5.2-3.25,7.75h-12.92c6.3-14.96,12.47-29.61,18.7-44.41h12.07c6.16,14.56,12.39,29.29,18.83,44.49ZM1383.82,405.6c-1.6-4.05-3.07-7.79-4.84-12.25-1.78,4.49-3.28,8.27-4.86,12.25h9.7Z"/>
      <path class="cls-4" d="M712.42,387.4c-3.1,2.4-6.08,4.7-9.02,6.98-6.81-6.11-12.32-6.74-16.92-2.09-4.42,4.47-4.53,12.8-.23,17.41,4.38,4.69,10.38,4.05,17.55-2.05,2.9,2.06,5.86,4.17,8.81,6.26-5.63,9.77-16.07,11.41-24.47,9.71-10.33-2.08-17.15-10.47-17.73-21.13-.58-10.64,5.39-19.84,15.16-23.15,9.48-3.21,21.33-.72,26.86,8.06Z"/>
      <path class="cls-4" d="M1135.33,422.94v-44.23h12.64v33.58h17.92v10.65h-30.56Z"/>
      <path class="cls-4" d="M645.24,423.3v-44.13h11.68c.66,2.47.93,35.83.32,44.05-3.88.18-7.81.04-11.99.07Z"/>
      <path class="cls-4" d="M1414.89,423.13v-43.93h12.08v43.93h-12.08Z"/>
      <path class="cls-4" d="M1507.1,408.87h-5.88c-1.63-3.35-4.6-25.58-3.95-29.74h13.56c-.14,10.13-2.62,19.74-3.74,29.74Z"/>
      <path class="cls-4" d="M1510.04,412.73v10.4h-12.28v-10.4h12.28Z"/>
      <path class="cls-4" d="M1005.6,64.37c-.26,0-.53,0-.79,0,.12-.15.25-.3.37-.45.15.14.3.29.42.46Z"/>
    </g>
  </g>
</svg>