<svg xmlns="http://www.w3.org/2000/svg" version="1.1" xmlns:xlink="http://www.w3.org/1999/xlink" xmlns:svgjs="http://svgjs.dev/svgjs" width="1440" height="400" preserveAspectRatio="none" viewBox="0 0 1440 400"><g mask="url(&quot;#SvgjsMask1063&quot;)" fill="none"><path d="M1512 400L0 400 L0 232.28Q53.6 165.88, 120 219.49Q161.05 140.54, 240 181.58Q289.35 110.93, 360 160.28Q416.97 145.25, 432 202.22Q462.73 112.95, 552 143.68Q634.03 105.72, 672 187.75Q704.51 100.26, 792 132.78Q868.47 89.25, 912 165.72Q939.49 121.21, 984 148.7Q1041.33 134.03, 1056 191.36Q1134.47 149.84, 1176 228.31Q1184.67 164.98, 1248 173.65Q1275.63 129.28, 1320 156.92Q1396.51 113.43, 1440 189.94Q1493.25 171.19, 1512 224.44z" fill="rgba(251, 251, 251, 1)"></path><path d="M1488 400L0 400 L0 340.41Q1.11 269.52, 72 270.64Q91.59 218.22, 144 237.81Q214.12 187.93, 264 258.04Q306.01 228.05, 336 270.06Q400.38 262.44, 408 326.83Q460.11 258.94, 528 311.05Q603.88 266.93, 648 342.81Q652.41 227.22, 768 231.62Q835.18 178.81, 888 245.99Q955.58 193.57, 1008 261.15Q1085.28 218.42, 1128 295.7Q1178.27 225.97, 1248 276.24Q1297.15 205.39, 1368 254.54Q1472.91 239.45, 1488 344.36z" fill="rgba(253, 253, 253, 1)"></path><path d="M1512 400L0 400 L0 399.02Q43.95 322.97, 120 366.92Q144.66 319.58, 192 344.23Q246.17 326.4, 264 380.58Q347.5 344.07, 384 427.57Q387.3 358.87, 456 362.16Q522.8 308.96, 576 375.76Q625.62 353.38, 648 403Q666.1 301.1, 768 319.2Q812.14 291.34, 840 335.48Q947.4 322.88, 960 430.28Q985.87 336.14, 1080 362.01Q1094.56 304.57, 1152 319.13Q1218.83 265.95, 1272 332.78Q1362.22 303, 1392 393.23Q1464.49 345.72, 1512 418.2z" fill="rgba(255, 255, 255, 1)"></path></g><defs><mask id="SvgjsMask1063"><rect width="1440" height="400" fill="#ffffff"></rect></mask></defs></svg>